<svg width="40" height="40" viewBox="0 0 40 40" fill="none" xmlns="http://www.w3.org/2000/svg">
<path d="M24.6094 28.8203C24.3359 29.25 23.7891 29.4062 23.3594 29.1328L15.8203 24.7969C15.3906 24.5234 15.2344 23.9766 15.5078 23.5078L21.9922 12.2578C22.2656 11.7891 22.8516 11.6328 23.2812 11.9062L30.7812 16.2422C31.25 16.4766 31.4062 17.0625 31.1328 17.4922L24.6094 28.8203ZM25.7031 29.4453C25.7031 29.4453 25.7031 29.4453 25.7031 29.4062L32.2266 18.1562C32.2266 18.1172 32.2266 18.1172 32.2266 18.1172C32.8125 17.0625 32.4609 15.7734 31.4453 15.1484L23.9062 10.8125C22.8516 10.2266 21.5234 10.5781 20.9375 11.5938L14.4141 22.9219C13.7891 23.9375 14.1406 25.2656 15.1953 25.8516C15.1953 25.8906 15.1953 25.8906 15.1953 25.8906L22.7344 30.2266C23.7891 30.8125 25.0781 30.4609 25.7031 29.4453ZM19.8438 29.9922L18.5547 29.25C18.5156 29.25 18.4766 29.2891 18.4375 29.2891H9.6875C9.17969 29.2891 8.75 28.8594 8.75 28.3516V15.2266C8.75 14.6797 9.17969 14.2891 9.6875 14.2891L17.9297 14.25L18.6719 13.0391C18.5938 13 18.5156 13 18.4375 13H9.6875C8.51562 13 7.5 14.0156 7.5 15.1875V28.3125C7.5 29.5234 8.51562 30.5 9.6875 30.5H18.4375C18.9844 30.5 19.4922 30.3438 19.8438 29.9922Z" fill="#3C3D42"/>
<rect x="18" y="20" width="19" height="19" rx="9.5" fill="#C07858"/>
<rect x="18" y="20" width="19" height="19" rx="9.5" stroke="#FEF9EF" stroke-width="2"/>
<path d="M25.0079 31.6072C25.2703 31.3704 25.5103 31.1592 25.7279 30.9736C25.9455 30.788 26.1375 30.6216 26.3039 30.4744C26.8671 29.988 27.3023 29.604 27.6095 29.3224C27.9167 29.0344 28.1631 28.7528 28.3487 28.4776C28.5407 28.2024 28.6367 27.9464 28.6367 27.7096C28.6367 27.4216 28.5439 27.1912 28.3583 27.0184C28.1791 26.8392 27.9231 26.7496 27.5903 26.7496C27.2383 26.7496 26.9631 26.8552 26.7647 27.0664C26.5663 27.2712 26.4607 27.5592 26.4479 27.9304H25.1711C25.1711 27.5016 25.2639 27.1176 25.4495 26.7784C25.6415 26.4392 25.9199 26.1736 26.2847 25.9816C26.6495 25.7832 27.0847 25.684 27.5903 25.684C28.1215 25.684 28.5631 25.78 28.9151 25.972C29.2735 26.1576 29.5359 26.404 29.7023 26.7112C29.8687 27.0184 29.9551 27.3512 29.9615 27.7096C29.9615 28.0616 29.8431 28.42 29.6063 28.7848C29.3759 29.1432 29.0783 29.4984 28.7135 29.8504C28.3487 30.196 27.8367 30.6504 27.1775 31.2136L26.8895 31.4632H30.0863V32.5H25.0079V31.6072Z" fill="#FEF9EF"/>
</svg>
