<svg width="173" height="41" viewBox="0 0 173 41" fill="none" xmlns="http://www.w3.org/2000/svg">
<path d="M22.2129 37.0849C21.5028 37.2413 20.7829 37.3526 20.0586 37.417L3.20312 27.6846C2.89705 27.0252 2.63345 26.3463 2.41406 25.6533L22.2129 37.0849Z" fill="#3C3D42"/>
<path d="M26.8887 35.4385C26.2541 35.8017 25.5959 36.1245 24.9199 36.4033L1.64844 22.9678C1.55154 22.2433 1.50235 21.5132 1.5 20.7822L26.8887 35.4385Z" fill="#3C3D42"/>
<path d="M30.5879 32.4678C29.9769 33.0843 29.3179 33.652 28.6191 34.167L1.71484 18.6338C1.81098 17.7714 1.97439 16.918 2.20312 16.081L30.5879 32.4678Z" fill="#3C3D42"/>
<path d="M33.3867 28.8564L33.2734 29.0498C32.7629 29.9359 32.1748 30.7755 31.5137 31.5556L2.63672 14.8838C2.98228 13.9212 3.41405 12.9919 3.92578 12.1064L4.04102 11.9131L33.3867 28.8564Z" fill="#3C3D42"/>
<path d="M35.1914 23.7842C34.9104 25.2167 34.4431 26.6061 33.8047 27.9189L4.5332 11.0185C5.35101 9.80922 6.32168 8.71056 7.42188 7.75096L35.1914 23.7842Z" fill="#3C3D42"/>
<path d="M17.2246 3.63377C20.6416 3.36601 24.0614 4.14204 27.0293 5.85643C29.9952 7.57013 32.3725 10.1419 33.8477 13.2334C35.3228 16.3254 35.8272 19.7928 35.293 23.1767L7.88867 7.35447C10.553 5.19925 13.8082 3.90165 17.2246 3.63377Z" fill="#3C3D42"/>
<path d="M68.9941 24.8726C68.9941 28.6432 70.5163 30.5262 73.5634 30.5262C75.195 30.5261 76.4456 29.9887 77.3148 28.9163C78.1839 27.8193 78.6209 26.4735 78.6209 24.8726V15.7334H81.1V32.172H78.6209V29.1483C78.1207 30.1774 77.4034 31.0007 76.4673 31.6121C75.5309 32.2052 74.3677 32.5 72.9738 32.5C70.6474 32.4999 68.9822 31.8334 67.9818 30.4942C67.0027 29.1359 66.515 27.3702 66.515 25.2006V15.7334H68.9941V24.8726Z" fill="#3C3D42"/>
<path fill-rule="evenodd" clip-rule="evenodd" d="M145.038 15.4074C146.712 15.4074 148.159 15.7921 149.379 16.5573C150.62 17.3254 151.552 18.3643 152.183 19.6791C152.815 20.9728 153.13 22.3967 153.13 23.9547C153.13 25.5126 152.815 26.9452 152.183 28.2604C151.552 29.5534 150.619 30.5821 149.379 31.3501C148.162 32.1184 146.712 32.5 145.038 32.5C143.363 32.5 141.917 32.1152 140.697 31.3501C139.481 30.5821 138.557 29.5533 137.926 28.2604C137.294 26.9452 136.979 25.5095 136.979 23.9547C136.979 22.3998 137.294 20.9728 137.926 19.6791C138.557 18.3644 139.48 17.3223 140.697 16.5573C141.914 15.7891 143.363 15.4075 145.038 15.4074ZM145.038 17.5072C143.321 17.5073 141.995 18.1004 140.994 19.2831C139.994 20.4661 139.494 22.0241 139.494 23.9507C139.494 25.8775 139.994 27.4352 140.994 28.6183C141.995 29.8014 143.342 30.3961 145.038 30.3962C146.755 30.3962 148.116 29.8014 149.117 28.6183C150.117 27.4353 150.617 25.877 150.617 23.9507C150.617 22.0243 150.117 20.4661 149.117 19.2831C148.116 18.1 146.755 17.5072 145.038 17.5072Z" fill="#3C3D42"/>
<path d="M109.758 15.4054C111.759 15.4054 113.413 15.9522 114.718 17.0493C116.045 18.1217 116.859 19.5136 117.164 21.2249H114.587C114.349 20.0849 113.794 19.1868 112.922 18.5292C112.074 17.8502 111.018 17.5094 109.756 17.5092C107.993 17.5092 106.622 18.1125 105.643 19.3171C104.686 20.5216 104.206 22.0672 104.206 23.9507C104.206 25.8342 104.686 27.3798 105.643 28.5843C106.622 29.789 107.993 30.3922 109.756 30.3922C111.018 30.392 112.074 30.0637 112.922 29.4063C113.791 28.7271 114.346 27.8166 114.587 26.6765H117.164C116.859 28.3851 116.045 29.7901 114.718 30.8841C113.413 31.9566 111.759 32.494 109.758 32.494C108.041 32.494 106.57 32.0998 105.354 31.3101C104.137 30.5204 103.222 29.4788 102.612 28.1884C102.079 27.0562 101.778 25.8324 101.711 24.5167L101.697 23.9507C101.697 22.4173 102.002 21.0028 102.612 19.7091C103.222 18.4158 104.134 17.3738 105.354 16.5873C106.57 15.7976 108.041 15.4055 109.758 15.4054Z" fill="#3C3D42"/>
<path d="M62.7258 21.6829H50.9791V32.172H48.5V23.1668C48.5002 22.2297 48.9186 21.3419 49.6413 20.749L50.1256 20.349C50.6777 19.8943 51.3711 19.6451 52.0847 19.6451H62.7258V21.6829Z" fill="#3C3D42"/>
<path d="M123.686 15.7334H127.471V17.7072H123.686V27.4684C123.686 28.4976 123.903 29.2233 124.339 29.6382C124.797 30.0346 125.577 30.2321 126.687 30.2322H127.471V32.172H126.165C124.403 32.1719 123.132 31.808 122.348 31.0861C121.589 30.3426 121.207 29.2368 121.207 27.7684V17.7072H118.952V15.7334H121.207V11.1298H123.686V15.7334Z" fill="#3C3D42"/>
<path d="M133.384 32.172H130.905V15.7334H133.384V32.172Z" fill="#3C3D42"/>
<path d="M92.799 15.4014C95.1262 15.4014 96.7802 16.081 97.7593 17.4393C98.7596 18.7974 99.2598 20.5616 99.2599 22.7308V32.166H96.7788V23.0608C96.7788 21.3061 96.4197 19.9251 95.7029 18.9171C94.9863 17.9097 93.8212 17.4055 92.2115 17.4053C90.6011 17.4053 89.3273 17.9446 88.4581 19.0171C87.5893 20.0925 87.154 21.4387 87.154 23.0608V32.166H84.6728V15.7274H87.154L87.156 15.7334V18.7571C87.6348 17.7279 88.3427 16.9163 89.2758 16.3233C90.2335 15.7088 91.4083 15.4014 92.799 15.4014Z" fill="#3C3D42"/>
<path d="M164.039 15.4014C166.366 15.4014 168.02 16.0811 168.999 17.4393C170 18.7974 170.5 20.5616 170.5 22.7308V32.166H168.021V23.0608C168.021 21.3061 167.66 19.9251 166.943 18.9171C166.226 17.9097 165.061 17.4054 163.452 17.4053C161.841 17.4053 160.569 17.9446 159.7 19.0171C158.831 20.0926 158.394 21.4384 158.394 23.0608V32.166H155.915V15.7274H158.394L158.398 15.7334V18.7571C158.877 17.7282 159.585 16.9162 160.518 16.3233C161.475 15.7093 162.649 15.4015 164.039 15.4014Z" fill="#3C3D42"/>
<path d="M63.5733 11.2298H50.9791V19.6451H48.5V13.0676C48.5 11.9029 49.0158 10.8015 49.9033 10.0579C50.5987 9.47421 51.4739 9.15798 52.3765 9.15795H63.5733V11.2298Z" fill="#3C3D42"/>
<path d="M132.146 8.5C132.625 8.5 133.028 8.67563 133.355 9.02596C133.702 9.35455 133.874 9.75989 133.875 10.2419C133.875 10.7243 133.702 11.1404 133.355 11.4938C133.028 11.8226 132.625 11.9857 132.146 11.9857C131.667 11.9856 131.256 11.8221 130.905 11.4938C130.579 11.1434 130.417 10.7243 130.417 10.2419C130.417 9.75963 130.582 9.35464 130.905 9.02596C131.253 8.67572 131.667 8.50009 132.146 8.5Z" fill="#3C3D42"/>
</svg>
