<svg width="375" height="54" viewBox="0 0 375 54" fill="none" xmlns="http://www.w3.org/2000/svg">
<rect opacity="0.35" x="336.833" y="22.8335" width="21" height="10.3333" rx="2.16667" stroke="#3C3D42"/>
<path opacity="0.4" d="M359.333 26V30C360.138 29.6612 360.662 28.8731 360.662 28C360.662 27.1269 360.138 26.3388 359.333 26Z" fill="#3C3D42"/>
<rect x="338.333" y="24.3335" width="18" height="7.33333" rx="1.33333" fill="#3C3D42"/>
<path d="M321.448 30.7573C322.729 29.6751 324.605 29.6751 325.886 30.7573C325.95 30.8155 325.987 30.8982 325.989 30.9849C325.991 31.0715 325.956 31.1546 325.895 31.2153L323.89 33.2378C323.831 33.2972 323.751 33.3306 323.667 33.3306C323.583 33.3305 323.503 33.2972 323.444 33.2378L321.438 31.2153C321.377 31.1545 321.343 31.0705 321.345 30.9839C321.347 30.8974 321.384 30.8154 321.448 30.7573ZM318.772 28.0601C321.532 25.4957 325.804 25.4957 328.563 28.0601C328.626 28.1201 328.661 28.2022 328.662 28.2886C328.663 28.3751 328.629 28.4586 328.568 28.52L327.409 29.6909C327.29 29.8102 327.097 29.8121 326.975 29.6958C326.069 28.876 324.889 28.4223 323.667 28.4224C322.446 28.4229 321.268 28.8767 320.362 29.6958C320.24 29.8121 320.046 29.8104 319.927 29.6909L318.769 28.52C318.707 28.4588 318.673 28.3759 318.674 28.2896C318.675 28.2031 318.71 28.1202 318.772 28.0601ZM316.097 25.3696C320.329 21.3174 327.005 21.3174 331.237 25.3696C331.298 25.4298 331.333 25.5124 331.333 25.5981C331.333 25.6838 331.3 25.7658 331.239 25.8267L330.079 26.9976C329.96 27.1177 329.765 27.1187 329.644 27.0005C328.031 25.4691 325.892 24.6148 323.667 24.6147C321.442 24.6148 319.302 25.4688 317.689 27.0005C317.568 27.1188 317.374 27.1176 317.255 26.9976L316.094 25.8267C316.033 25.7658 316 25.6838 316 25.5981C316.001 25.5123 316.035 25.4298 316.097 25.3696Z" fill="#3C3D42"/>
<path d="M296 29.3335C296.552 29.3335 297 29.7812 297 30.3335V32.3335C297 32.8856 296.552 33.3335 296 33.3335H295C294.448 33.3335 294 32.8856 294 32.3335V30.3335C294 29.7812 294.448 29.3335 295 29.3335H296ZM300.667 27.3335C301.219 27.3337 301.667 27.7813 301.667 28.3335V32.3335C301.667 32.8855 301.219 33.3333 300.667 33.3335H299.667C299.115 33.3335 298.667 32.8856 298.667 32.3335V28.3335C298.667 27.7812 299.115 27.3335 299.667 27.3335H300.667ZM305.333 24.9995C305.885 24.9995 306.333 25.4474 306.333 25.9995V32.3335C306.333 32.8856 305.885 33.3335 305.333 33.3335H304.333C303.781 33.3333 303.333 32.8855 303.333 32.3335V25.9995C303.333 25.4475 303.781 24.9997 304.333 24.9995H305.333ZM310 22.6665C310.552 22.6665 311 23.1142 311 23.6665V32.3335C311 32.8856 310.552 33.3335 310 33.3335H309C308.448 33.3335 308 32.8856 308 32.3335V23.6665C308 23.1142 308.448 22.6665 309 22.6665H310Z" fill="#3C3D42"/>
<path d="M37.1246 20.7583C39.3805 20.7583 41.3434 22.3623 41.3434 26.1709V26.1855C41.3434 29.7451 39.7394 31.8545 37.0807 31.8545C35.1398 31.8545 33.6896 30.7046 33.3527 29.0859L33.338 29.0054H35.1984L35.2204 29.0786C35.4987 29.8184 36.1505 30.3018 37.0807 30.3018C38.7579 30.3018 39.4684 28.6611 39.549 26.6396C39.549 26.5591 39.5563 26.4785 39.5563 26.3979H39.4098C39.0216 27.2329 38.0988 27.9727 36.6486 27.9727C34.6198 27.9727 33.1989 26.4932 33.1989 24.4863V24.4717C33.1989 22.3257 34.8322 20.7583 37.1246 20.7583ZM37.1173 26.5225C38.3112 26.5225 39.2267 25.6582 39.2267 24.4644V24.4497C39.2267 23.2412 38.3112 22.2964 37.1393 22.2964C35.9747 22.2964 35.0446 23.2266 35.0446 24.4058V24.4204C35.0446 25.6436 35.9162 26.5225 37.1173 26.5225ZM44.4286 24.7427C43.7621 24.7427 43.264 24.23 43.264 23.5854C43.264 22.9336 43.7621 22.4282 44.4286 22.4282C45.1024 22.4282 45.5931 22.9336 45.5931 23.5854C45.5931 24.23 45.1024 24.7427 44.4286 24.7427ZM44.4286 30.1772C43.7621 30.1772 43.264 29.6719 43.264 29.02C43.264 28.3682 43.7621 27.8628 44.4286 27.8628C45.1024 27.8628 45.5931 28.3682 45.5931 29.02C45.5931 29.6719 45.1024 30.1772 44.4286 30.1772ZM52.6407 31.5908V29.562H47.4698V28.0166C48.8395 25.6362 50.3409 23.2046 51.7765 21.022H54.4498V28.002H55.8707V29.562H54.4498V31.5908H52.6407ZM49.2277 28.0459H52.67V22.5308H52.5602C51.4762 24.186 50.253 26.1416 49.2277 27.936V28.0459ZM60.0106 31.5908V22.8823H59.8861L57.2567 24.7427V22.9629L60.0179 21.022H61.9003V31.5908H60.0106Z" fill="#3C3D42"/>
</svg>
